<?xml version="1.0" ?><!DOCTYPE svg  PUBLIC '-//W3C//DTD SVG 1.1//EN'  'http://www.w3.org/Graphics/SVG/1.1/DTD/svg11.dtd'><svg enable-background="new 0 0 800 800" height="800px" id="Layer_1" version="1.1" viewBox="0 0 800 800" width="800px" xml:space="preserve" xmlns="http://www.w3.org/2000/svg" xmlns:xlink="http://www.w3.org/1999/xlink"><g><path d="M205.925,380.167c27.745,0,53.461-12.974,70.031-34.309c31.114,22.254,68.33,34.309,106.751,34.309   c37.578,0,74.317-11.595,105.027-32.912c22.865,21.086,52.811,32.912,84.307,32.912c68.654,0,124.488-55.834,124.488-124.488   c0-68.635-55.834-124.489-124.488-124.489c-5.53,0-11.118,0.402-16.724,1.187C528.914,60.72,460.087,11.946,382.708,11.946   c-101.527,0-184.111,82.583-184.111,184.11c0,2.296,0.058,4.63,0.153,7.003c-45.558,3.656-81.532,41.923-81.532,88.42   C117.218,340.387,157.018,380.167,205.925,380.167z M205.925,237.061c2.755,0,5.722,0.269,9.032,0.823   c5.454,0.938,10.945-0.823,14.867-4.687c3.923-3.846,5.759-9.337,4.937-14.772c-1.282-8.514-1.875-15.632-1.875-22.368   c0-82.622,67.218-149.822,149.822-149.822c67.372,0,126.765,45.445,144.426,110.52c1.186,4.401,4.076,8.132,8.035,10.39   c3.962,2.258,8.65,2.852,13.032,1.646c8.017-2.181,16.053-3.31,23.841-3.31c49.749,0,90.198,40.469,90.198,90.2   c0,49.748-40.449,90.199-90.198,90.199c-26.827,0-52.103-11.844-69.324-32.528c-2.909-3.482-7.099-5.684-11.614-6.085   c-0.517-0.057-1.033-0.076-1.55-0.076c-3.999,0-7.883,1.396-10.982,3.979c-26.865,22.387-60.906,34.71-95.863,34.71   c-36.796,0-72.251-13.624-99.843-38.365c-4.095-3.673-9.701-5.185-15.058-3.999c-5.377,1.148-9.875,4.823-12.094,9.836   c-8.706,19.766-28.241,32.528-49.787,32.528c-30.003,0-54.418-24.397-54.418-54.399   C151.507,261.458,175.922,237.061,205.925,237.061z" fill="#4D4D4D"/><path d="M503.712,475.494c0,10.888,8.822,19.689,19.689,19.689c10.868,0,19.69-8.802,19.69-19.689   c0-10.867-8.822-19.688-19.69-19.688C512.534,455.806,503.712,464.627,503.712,475.494z" fill="#4D4D4D"/><path d="M385.329,407.51c-10.868,0-19.689,8.82-19.689,19.689s8.821,19.688,19.689,19.688   s19.689-8.819,19.689-19.688S396.197,407.51,385.329,407.51z" fill="#4D4D4D"/><path d="M151.833,661.538c-10.868,0-19.69,8.802-19.69,19.689c0,10.867,8.822,19.67,19.69,19.67   c10.868,0,19.689-8.803,19.689-19.67C171.522,670.34,162.7,661.538,151.833,661.538z" fill="#4D4D4D"/><path d="M112.626,445.778c-10.868,0-19.689,8.821-19.689,19.689s8.821,19.689,19.689,19.689   c10.888,0,19.69-8.821,19.69-19.689S123.514,445.778,112.626,445.778z" fill="#4D4D4D"/><path d="M327.256,730.096c-10.868,0-19.689,8.82-19.689,19.688c0,10.869,8.821,19.69,19.689,19.69   s19.689-8.821,19.689-19.69C346.946,738.916,338.125,730.096,327.256,730.096z" fill="#4D4D4D"/><path d="M671.712,596.136c-10.867,0-19.689,8.821-19.689,19.69c0,10.887,8.822,19.688,19.689,19.688   c10.869,0,19.69-8.802,19.69-19.688C691.402,604.957,682.581,596.136,671.712,596.136z" fill="#4D4D4D"/><path d="M695.936,474.25l6.104-6.103c6.697-6.697,6.697-17.546,0-24.244c-6.696-6.696-17.546-6.696-24.244,0   l-6.102,6.104l-6.124-6.104c-6.696-6.696-17.547-6.696-24.244,0c-6.696,6.698-6.696,17.547,0,24.244l6.125,6.103l-6.125,6.124   c-6.696,6.678-6.696,17.546,0,24.243c3.349,3.348,7.751,5.013,12.131,5.013c4.383,0,8.765-1.665,12.113-5.013l6.124-6.123   l6.102,6.104c3.351,3.35,7.731,5.032,12.112,5.032c4.402,0,8.783-1.683,12.132-5.032c6.697-6.678,6.697-17.546,0-24.243   L695.936,474.25z" fill="#4D4D4D"/><path d="M599.768,748.694c-10.868,0-19.689,8.801-19.689,19.688c0,10.87,8.821,19.67,19.689,19.67   c10.886,0,19.689-8.8,19.689-19.67C619.457,757.495,610.653,748.694,599.768,748.694z" fill="#4D4D4D"/><path d="M318.358,587.852l-19.516-19.518l19.516-19.517c6.697-6.679,6.697-17.547,0-24.244   c-6.697-6.696-17.546-6.696-24.243,0l-19.518,19.518l-19.516-19.518c-6.697-6.696-17.547-6.696-24.244,0   c-6.697,6.697-6.697,17.548,0,24.244l19.518,19.517l-19.518,19.518c-6.697,6.696-6.697,17.564,0,24.242   c3.349,3.35,7.75,5.032,12.132,5.032c4.381,0,8.764-1.683,12.112-5.032l19.516-19.517l19.518,19.517   c3.349,3.35,7.75,5.032,12.131,5.032c4.381,0,8.764-1.683,12.111-5.032C325.055,605.397,325.055,594.548,318.358,587.852z" fill="#4D4D4D"/><path d="M207.628,548.646c-10.868,0-19.69,8.82-19.69,19.688c0,10.869,8.822,19.688,19.69,19.688   s19.689-8.819,19.689-19.688C227.317,557.466,218.497,548.646,207.628,548.646z" fill="#4D4D4D"/><path d="M341.11,548.646c-10.869,0-19.689,8.82-19.689,19.688c0,10.869,8.82,19.688,19.689,19.688   c10.868,0,19.689-8.819,19.689-19.688C360.799,557.466,351.978,548.646,341.11,548.646z" fill="#4D4D4D"/><path d="M274.598,615.634c-10.868,0-19.688,8.802-19.688,19.689c0,10.868,8.82,19.688,19.688,19.688   c10.889,0,19.69-8.82,19.69-19.688C294.288,624.436,285.486,615.634,274.598,615.634z" fill="#4D4D4D"/><path d="M254.91,501.364c0,10.869,8.82,19.689,19.688,19.689c10.889,0,19.69-8.82,19.69-19.689   s-8.802-19.689-19.69-19.689C263.73,481.675,254.91,490.495,254.91,501.364z" fill="#4D4D4D"/><path d="M562.341,650.86h-25.124c-4.648-11.748-13.853-21.162-25.506-26.004v-24.645   c0-9.453-7.674-17.145-17.145-17.145s-17.145,7.691-17.145,17.145v24.205c-12.283,4.65-22.08,14.255-26.922,26.443h-23.708   c-9.471,0-17.145,7.673-17.145,17.145c0,9.452,7.674,17.145,17.145,17.145H450.5c4.842,12.188,14.639,21.775,26.922,26.423v24.207   c0,9.451,7.674,17.144,17.145,17.144s17.145-7.692,17.145-17.144v-24.646c11.653-4.82,20.857-14.255,25.506-25.983h25.124   c9.471,0,17.144-7.692,17.144-17.145C579.484,658.533,571.812,650.86,562.341,650.86z M493.858,655.568   c6.85,0,12.438,5.566,12.438,12.437c0,6.85-5.588,12.418-12.438,12.418c-6.851,0-12.418-5.568-12.418-12.418   C481.44,661.135,487.008,655.568,493.858,655.568z" fill="#4D4D4D"/></g></svg>