<?xml version="1.0" encoding="utf-8"?>
<!-- Svg Vector Icons : http://www.onlinewebfonts.com/icon -->
<!DOCTYPE svg PUBLIC "-//W3C//DTD SVG 1.1//EN" "http://www.w3.org/Graphics/SVG/1.1/DTD/svg11.dtd">
<svg version="1.1" xmlns="http://www.w3.org/2000/svg" xmlns:xlink="http://www.w3.org/1999/xlink" x="0px" y="0px" viewBox="0 0 1000 1000" enable-background="new 0 0 1000 1000" xml:space="preserve">
<metadata> Svg Vector Icons : http://www.onlinewebfonts.com/icon </metadata>
<g><path d="M771,196C722,101.1,622.5,41.4,515.3,41.4c-131.7,0-248.1,91.9-280.2,215.9c-9.2,0-16.8-1.5-26-1.5C98.8,255.8,10,346.1,10,454.8c0,108.7,88.8,199.1,199.1,199.1h137.8c16.8,0,30.6-13.8,30.6-30.6c0-16.8-13.8-30.6-30.6-30.6H209.1c-76.6,0-137.8-61.3-137.8-137.8S132.5,317,209.1,317c13.8,0,27.6,1.5,39.8,6.1l33.7,10.7l4.6-35.2c18.4-111.8,114.8-196,228.2-196c90.3,0,173,53.6,209.8,136.3l9.2,18.4l24.5-1.5c1.5,0,1.5,0,3.1,0c93.4,0,168.4,75,168.4,168.4c0,93.4-75,168.4-166.9,168.4H653.1c-16.8,0-30.6,13.8-30.6,30.6c0,16.8,13.8,30.6,30.6,30.6h107.2c127.1,0,229.7-102.6,229.7-229.7C990,301.7,893.5,202.2,771,196z"/><path d="M581.2,531.4c-13.8-10.7-32.2-9.2-42.9,4.6L343.8,776.4h122.5L359.1,909.6c-10.7,13.8-9.2,32.2,4.6,42.9c6.1,4.6,12.3,6.1,18.4,6.1c9.2,0,18.4-4.6,24.5-12.3l188.3-231.2H472.4l113.3-140.9C596.5,560.5,593.4,542.1,581.2,531.4z"/><path d="M235.1,692.2c-13.8-10.7-32.2-9.2-42.9,4.6L78.9,837.6h91.9l-33.7,42.9c-10.7,13.8-9.2,32.2,4.6,42.9c4.6,4.6,12.3,6.1,18.4,6.1c9.2,0,18.4-4.6,24.5-12.3l113.3-142.4H206l33.7-41.3C250.4,721.3,247.3,702.9,235.1,692.2z"/><path d="M745,692.2c-13.8-10.7-32.2-9.2-42.9,4.6L588.8,837.6h91.9L647,880.5c-10.7,13.8-9.2,32.2,4.6,42.9c6.1,4.6,12.3,6.1,18.4,6.1c9.2,0,18.4-4.6,24.5-12.3l113.3-142.4h-91.9l33.7-41.3C761.8,721.3,758.8,702.9,745,692.2z"/></g>
</svg>